<?xml version="1.0" encoding="iso-8859-1"?>
<!-- Generator: Adobe Illustrator 19.0.0, SVG Export Plug-In . SVG Version: 6.00 Build 0)  -->
<svg version="1.1" id="Layer_1" xmlns="http://www.w3.org/2000/svg" xmlns:xlink="http://www.w3.org/1999/xlink" x="0px" y="0px"
	 viewBox="0 0 512 512" style="enable-background:new 0 0 512 512;" xml:space="preserve">
<polygon style="fill:#88888F;" points="512,229.053 451.368,229.053 451.368,168.421 410.947,168.421 410.947,229.053 
	350.316,229.053 350.316,269.474 410.947,269.474 410.947,330.105 451.368,330.105 451.368,269.474 512,269.474 "/>
<path style="fill:#7AB9E8;" d="M239.915,276.724c33.652-18.238,56.506-53.864,56.506-94.829
	c0-59.531-48.259-107.789-107.789-107.789S80.842,122.364,80.842,181.895c0,40.965,22.854,76.591,56.506,94.829
	C66.732,283.298,0,352.877,0,437.895h377.263C377.263,352.877,310.531,283.298,239.915,276.724z"/>
<path style="fill:#579ADF;" d="M188.632,437.895h188.632c0-85.018-66.732-154.597-137.348-161.171
	c33.652-18.238,56.506-53.864,56.506-94.829c0-59.531-48.259-107.789-107.789-107.789V437.895z"/>
<rect x="451.368" y="229.053" style="fill:#56545A;" width="60.632" height="40.421"/>
<g>
</g>
<g>
</g>
<g>
</g>
<g>
</g>
<g>
</g>
<g>
</g>
<g>
</g>
<g>
</g>
<g>
</g>
<g>
</g>
<g>
</g>
<g>
</g>
<g>
</g>
<g>
</g>
<g>
</g>
</svg>
